<svg width="18" height="18" viewBox="0 0 18 18" fill="none" xmlns="http://www.w3.org/2000/svg">
<g clip-path="url(#clip0_175_3162)">
<path d="M12.75 1.49994H5.25C3.17893 1.49994 1.5 3.17887 1.5 5.24994V12.7499C1.5 14.821 3.17893 16.4999 5.25 16.4999H12.75C14.8211 16.4999 16.5 14.821 16.5 12.7499V5.24994C16.5 3.17887 14.8211 1.49994 12.75 1.49994Z" stroke="#ECECEC" stroke-width="1.39539" stroke-linecap="round" stroke-linejoin="round"/>
<path d="M11.9676 8.55989C12.0601 9.18408 11.9535 9.82155 11.6629 10.3817C11.3722 10.9418 10.9124 11.396 10.3488 11.6796C9.78513 11.9633 9.14639 12.0621 8.52339 11.9618C7.9004 11.8616 7.32487 11.5675 6.87868 11.1213C6.43249 10.6751 6.13835 10.0995 6.0381 9.47655C5.93786 8.85356 6.0366 8.21481 6.3203 7.65117C6.60399 7.08753 7.05819 6.6277 7.61829 6.33707C8.17839 6.04645 8.81587 5.93983 9.44005 6.03239C10.0767 6.12681 10.6662 6.42349 11.1213 6.87862C11.5765 7.33375 11.8731 7.9232 11.9676 8.55989Z" stroke="#ECECEC" stroke-width="1.39539" stroke-linecap="round" stroke-linejoin="round"/>
<path d="M13.5 4.5H13.5102" stroke="#ECECEC" stroke-width="1.39539" stroke-linecap="round" stroke-linejoin="round"/>
</g>
<defs>
<clipPath id="clip0_175_3162">
<rect width="18" height="18" fill="white"/>
</clipPath>
</defs>
</svg>
