<svg width="29" height="34" viewBox="0 0 29 34" fill="none" xmlns="http://www.w3.org/2000/svg">
<path d="M5 14.0924C5 14.0924 8.56188 12.7107 12.1496 13.0552C16.5047 13.4733 19.2935 17.0373 21.1189 21.6664C22.5115 25.1979 21.8364 32 21.8364 32" stroke="#E0E0E0" stroke-width="1.05319"/>
<path d="M1 1L6 1" stroke="#E0E0E0" stroke-width="1.05319" stroke-linecap="round"/>
<path d="M18 1L24 1" stroke="#E0E0E0" stroke-width="1.05319" stroke-linecap="round"/>
<path d="M4 1L4 32.9999" stroke="#E0E0E0" stroke-width="1.05319" stroke-linecap="round"/>
<path d="M5 33H27" stroke="#E0E0E0" stroke-width="1.05319" stroke-linecap="round"/>
<path d="M26 33V29" stroke="#E0E0E0" stroke-width="1.05319" stroke-linecap="round"/>
<path d="M24 28H28" stroke="#E0E0E0" stroke-width="1.05319" stroke-linecap="round"/>
<path d="M5 17.7366C5 17.7366 16.1295 19.1959 19.7625 15.2445C23.3631 11.3284 21.5369 1 21.5369 1" stroke="#E0E0E0" stroke-width="1.05319"/>
<line x1="5" y1="23.4734" x2="21" y2="23.4734" stroke="#E0E0E0" stroke-width="1.05319"/>
</svg>
