<svg width="29" height="34" viewBox="0 0 29 34" fill="none" xmlns="http://www.w3.org/2000/svg">
<path d="M24 14.0924C24 14.0924 20.4381 12.7107 16.8504 13.0552C12.4953 13.4733 9.70651 17.0373 7.88111 21.6664C6.48854 25.1979 7.16356 32 7.16356 32" stroke="#E0E0E0" stroke-width="1.05319"/>
<path d="M28 1L23 1" stroke="#E0E0E0" stroke-width="1.05319" stroke-linecap="round"/>
<path d="M11 1L5 1" stroke="#E0E0E0" stroke-width="1.05319" stroke-linecap="round"/>
<path d="M25 1L25 32.9999" stroke="#E0E0E0" stroke-width="1.05319" stroke-linecap="round"/>
<path d="M24 33H2" stroke="#E0E0E0" stroke-width="1.05319" stroke-linecap="round"/>
<path d="M3 33L3 29" stroke="#E0E0E0" stroke-width="1.05319" stroke-linecap="round"/>
<path d="M5 28H1" stroke="#E0E0E0" stroke-width="1.05319" stroke-linecap="round"/>
<path d="M24 17.7366C24 17.7366 12.8705 19.1959 9.23749 15.2445C5.63687 11.3284 7.46311 1 7.46311 1" stroke="#E0E0E0" stroke-width="1.05319"/>
<line y1="-0.526596" x2="16" y2="-0.526596" transform="matrix(-1 0 0 1 24 24)" stroke="#E0E0E0" stroke-width="1.05319"/>
</svg>
