<svg width="18" height="18" viewBox="0 0 18 18" fill="none" xmlns="http://www.w3.org/2000/svg">
<g clip-path="url(#clip0_175_3174)">
<path d="M10.8806 4.1353C11.617 4.27872 12.2939 4.63822 12.8245 5.16779C13.3551 5.69736 13.7152 6.37291 13.8589 7.10798M10.8806 1.125C12.4107 1.29466 13.8375 1.97855 14.9268 3.06439C16.0161 4.15024 16.7031 5.57348 16.875 7.10045M16.121 13.106V15.3637C16.1218 15.5733 16.0788 15.7808 15.9947 15.9728C15.9106 16.1649 15.7872 16.3373 15.6324 16.479C15.4777 16.6206 15.295 16.7285 15.0961 16.7957C14.8972 16.8628 14.6864 16.8878 14.4772 16.8689C12.157 16.6173 9.92824 15.8259 7.97006 14.5585C6.14822 13.403 4.60362 11.8614 3.44595 10.043C2.17165 8.07971 1.37862 5.8444 1.13112 3.51819C1.11228 3.31008 1.13706 3.10033 1.20388 2.9023C1.27071 2.70427 1.37811 2.5223 1.51926 2.36797C1.66041 2.21364 1.83221 2.09034 2.02372 2.00591C2.21523 1.92148 2.42225 1.87777 2.63161 1.87758H4.89367C5.2596 1.87398 5.61435 2.00332 5.89181 2.24147C6.16926 2.47963 6.35049 2.81035 6.4017 3.17201C6.49718 3.89453 6.67424 4.60395 6.92951 5.28675C7.03096 5.55611 7.05292 5.84886 6.99278 6.13029C6.93264 6.41173 6.79293 6.67006 6.5902 6.87468L5.6326 7.83045C6.70599 9.71456 8.26899 11.2746 10.1567 12.3459L11.1143 11.3901C11.3193 11.1878 11.5781 11.0484 11.8601 10.9883C12.1421 10.9283 12.4354 10.9502 12.7053 11.0515C13.3894 11.3063 14.1002 11.483 14.8241 11.5783C15.1903 11.6299 15.5249 11.814 15.764 12.0957C16.0031 12.3774 16.1302 12.7369 16.121 13.106Z" stroke="#ECECEC" stroke-width="1.39539" stroke-linecap="round" stroke-linejoin="round"/>
</g>
<defs>
<clipPath id="clip0_175_3174">
<rect width="18" height="18" fill="white"/>
</clipPath>
</defs>
</svg>
