<svg xmlns="http://www.w3.org/2000/svg" width="1280" height="814" fill="none"><g fill="#0F1F24" fill-rule="evenodd" clip-rule="evenodd" filter="url(#a)" opacity=".7"><path d="M-103.582 9.294C-31.762-1.891 50.251-20.7 101.386 76.306c51.209 97.146 43.698 254.387 36.802 391.637-6.094 121.292-30.606 231.51-72.708 323.03-45.65 99.23-100.266 189.277-169.062 202.518-75.113 14.459-156.16-23.408-206.937-130.151-49.264-103.563-49.357-255.966-43.063-395.397 5.655-125.277 28.454-245.521 75.924-332.609 46.531-85.365 109.782-116.028 174.076-126.04ZM727.237 775.403c97.203-14.362 217.495-43.463 264.109 54.609 48.084 101.167-31.571 204.418-105.173 279.778-66.432 68.02-154.541 116.41-238.22 71.83-96.916-51.63-172.485-164.02-150.103-278.698 20.168-103.333 134.941-113.566 229.387-127.519ZM432.751 864.141c-1.557-65.68 3.196-148.216-59.428-168.076-64.6-20.487-117.257 43.478-154.097 100.36-33.252 51.34-52.693 114.797-17.784 165.025 40.431 58.17 114.482 95.54 179.783 68.07 58.84-24.76 53.038-101.563 51.526-165.379ZM1540.58 424.755c-2.67 119.449-13.88 237.709-47.36 321.591-32.97 82.593-80.43 104.126-127.62 116.795-54.8 14.712-115.79 48.287-159.32-39.762-45.26-91.524-57.82-250.688-54.46-392.611 3.06-129.476 36.33-231.161 71.43-324.977 35.83-95.78 74.3-194.014 127.44-206.626 57.18-13.571 119.31 30.697 158.36 138.796 37.18 102.904 34.56 251.357 31.53 386.794ZM643.742 53.85c25.048-3.831 53.65-10.274 71.484 22.955 17.86 33.278 15.24 87.141 12.835 134.156-2.125 41.549-10.674 79.304-25.357 110.654-15.921 33.992-34.968 64.837-58.962 69.373-26.196 4.952-54.461-8.018-72.17-44.583-17.181-35.476-17.213-87.681-15.018-135.444 1.972-42.914 9.923-84.103 26.479-113.936 16.228-29.241 38.287-39.745 60.709-43.175ZM350.409-102.052c25.048-2.344 53.65-6.287 71.484 14.048 17.859 20.366 15.239 53.329 12.835 82.1-2.126 25.428-10.674 48.533-25.358 67.719-15.92 20.802-34.968 39.679-58.961 42.455-26.196 3.03-54.462-4.907-72.17-27.284-17.181-21.71-17.214-53.66-15.019-82.89 1.973-26.262 9.924-51.469 26.479-69.725 16.228-17.896 38.287-24.324 60.71-26.423ZM1023.05 10.79c19.17 16.27 41.93 34.003 40.62 60.33-1.32 26.366-25.57 46.583-46.82 64.146-18.78 15.521-40.491 24.911-63.841 27.306-25.319 2.595-51.522 1.674-70.249-13.557-20.447-16.63-34.888-42.082-32.101-69.688 2.703-26.783 24.404-48.21 45.819-66.23 19.241-16.189 41.961-27.413 65.994-27.85 23.558-.43 43.408 10.976 60.578 25.542Z"/></g><defs><filter id="a" width="2335.95" height="1740.18" x="-575.111" y="-322.667" color-interpolation-filters="sRGB" filterUnits="userSpaceOnUse"><feFlood flood-opacity="0" result="BackgroundImageFix"/><feBlend in="SourceGraphic" in2="BackgroundImageFix" result="shape"/><feGaussianBlur result="effect1_foregroundBlur_512_579" stdDeviation="109.333"/></filter></defs></svg>