<svg xmlns="http://www.w3.org/2000/svg" width="343" height="438" fill="none"><g fill="#0F1F24" fill-rule="evenodd" clip-rule="evenodd" filter="url(#a)" opacity=".7"><path d="M-105.345 5c38.53-6.017 82.527-16.135 109.96 36.046C32.089 93.302 28.059 177.884 24.36 251.712c-3.27 65.245-16.42 124.532-39.006 173.762-24.49 53.378-53.79 101.815-90.698 108.937-40.297 7.777-83.777-12.591-111.017-70.009-26.429-55.708-26.479-137.688-23.102-212.69 3.033-67.388 15.265-132.068 40.731-178.914 24.963-45.919 58.896-62.413 93.388-67.799ZM341.598 417.117c52.204-7.716 116.805-23.363 141.854 29.431 25.839 54.459-16.927 110.021-56.446 150.575-35.669 36.603-82.983 62.635-127.931 38.629-52.058-27.803-92.66-88.308-80.656-150.031 10.817-55.616 72.457-61.107 123.179-68.604ZM183.043 464.785c-.836-35.296 1.717-79.652-31.93-90.325-34.708-11.01-63 23.365-82.794 53.935-17.866 27.59-28.312 61.692-9.556 88.685 21.723 31.263 61.51 51.343 96.596 36.579 31.613-13.302 28.496-54.578 27.684-88.874ZM296.58 28.707c13.515-2.054 28.947-5.509 38.569 12.307 9.636 17.841 8.222 46.719 6.925 71.925-1.147 22.276-5.759 42.518-13.682 59.325-8.589 18.225-18.866 34.762-31.812 37.194-14.133 2.655-29.384-4.299-38.938-23.903-9.27-19.02-9.288-47.009-8.103-72.616 1.064-23.007 5.354-45.09 14.286-61.084 8.756-15.678 20.657-21.31 32.755-23.148ZM138.58-54.955c13.515-1.258 28.947-3.372 38.569 7.532 9.636 10.919 8.222 28.593 6.925 44.02-1.147 13.633-5.759 26.021-13.682 36.308-8.589 11.154-18.866 21.275-31.812 22.763-14.133 1.625-29.384-2.631-38.938-14.629-9.27-11.64-9.288-28.77-8.103-44.442C92.603-17.485 96.893-31 105.825-40.79c8.756-9.594 20.657-13.041 32.755-14.166Z"/></g><defs><filter id="a" width="1255.44" height="936.128" x="-358.549" y="-173.549" color-interpolation-filters="sRGB" filterUnits="userSpaceOnUse"><feFlood flood-opacity="0" result="BackgroundImageFix"/><feBlend in="SourceGraphic" in2="BackgroundImageFix" result="shape"/><feGaussianBlur result="effect1_foregroundBlur_496_365" stdDeviation="58.774"/></filter></defs></svg>