<svg xmlns="http://www.w3.org/2000/svg" width="688" height="438" fill="none"><g fill="#0F1F24" fill-rule="evenodd" clip-rule="evenodd" filter="url(#a)" opacity=".7"><path d="M-56.345 5c38.53-6.017 82.527-16.135 109.96 36.046C81.089 93.302 77.059 177.884 73.36 251.712c-3.27 65.245-16.42 124.532-39.006 173.762-24.49 53.378-53.79 101.815-90.698 108.937-40.297 7.777-83.777-12.591-111.017-70.009-26.429-55.708-26.479-137.688-23.102-212.69 3.033-67.388 15.265-132.068 40.731-178.914 24.963-45.919 58.896-62.413 93.388-67.799ZM390.598 417.117c52.204-7.716 116.805-23.363 141.854 29.431 25.839 54.459-16.927 110.021-56.446 150.575-35.669 36.603-82.983 62.635-127.931 38.629-52.058-27.803-92.66-88.308-80.656-150.031 10.817-55.616 72.457-61.107 123.179-68.604ZM232.043 464.785c-.836-35.296 1.717-79.652-31.93-90.325-34.708-11.01-63 23.365-82.794 53.935-17.866 27.59-28.312 61.692-9.556 88.685 21.723 31.263 61.51 51.343 96.596 36.579 31.613-13.302 28.496-54.578 27.684-88.874ZM827.487 228.329c-1.439 64.241-7.477 127.844-25.504 172.957-17.75 44.42-43.3 56.001-68.708 62.816-29.503 7.913-62.337 25.97-85.774-21.383-24.363-49.223-31.125-134.824-29.317-211.152 1.65-69.634 19.564-124.322 38.46-174.778C675.936 5.277 696.648-47.556 725.259-54.34c30.786-7.3 64.232 16.508 85.258 74.645 20.015 55.343 18.601 135.184 16.97 208.024ZM345.58 28.707c13.515-2.054 28.947-5.509 38.569 12.307 9.636 17.841 8.222 46.719 6.925 71.925-1.147 22.276-5.759 42.518-13.682 59.325-8.589 18.225-18.866 34.762-31.812 37.194-14.133 2.655-29.384-4.299-38.938-23.903-9.27-19.02-9.288-47.009-8.103-72.616 1.064-23.007 5.354-45.09 14.286-61.084 8.756-15.678 20.657-21.31 32.755-23.148ZM187.58-54.955c13.515-1.258 28.947-3.372 38.569 7.532 9.636 10.919 8.222 28.593 6.925 44.02-1.147 13.633-5.759 26.021-13.682 36.308-8.589 11.154-18.866 21.275-31.812 22.763-14.133 1.625-29.384-2.631-38.938-14.629-9.27-11.64-9.288-28.77-8.103-44.442 1.064-14.082 5.354-27.597 14.286-37.386 8.756-9.594 20.657-13.041 32.755-14.166ZM549.678 5.599c10.339 8.785 22.606 18.361 21.939 32.529-.667 14.188-13.684 25.033-25.092 34.455-10.08 8.326-21.746 13.348-34.305 14.602-13.616 1.36-27.715.826-37.811-7.398-11.024-8.98-18.83-22.7-17.371-37.553 1.415-14.41 13.058-25.91 24.553-35.577 10.327-8.685 22.534-14.693 35.462-14.894 12.673-.197 23.37 5.971 32.625 13.836Z"/></g><defs><filter id="a" width="1255.44" height="936.128" x="-309.549" y="-173.549" color-interpolation-filters="sRGB" filterUnits="userSpaceOnUse"><feFlood flood-opacity="0" result="BackgroundImageFix"/><feBlend in="SourceGraphic" in2="BackgroundImageFix" result="shape"/><feGaussianBlur result="effect1_foregroundBlur_217_2206" stdDeviation="58.774"/></filter></defs></svg>